<?xml version="1.0" encoding="UTF-8"?>
<svg id="_レイヤー_1" data-name="レイヤー 1" xmlns="http://www.w3.org/2000/svg" xmlns:xlink="http://www.w3.org/1999/xlink" viewBox="0 0 224 240.03">
  <defs>
    <style>
      .cls-1 {
        fill: #fff;
      }

      .cls-2, .cls-3, .cls-4 {
        fill: none;
      }

      .cls-3 {
        stroke: url(#_市松2);
        stroke-width: 48px;
      }

      .cls-3, .cls-4 {
        stroke-miterlimit: 10;
      }

      .cls-4 {
        stroke: #000;
        stroke-width: 2px;
      }

      .cls-5 {
        fill: #c1272d;
      }
    </style>
    <pattern id="_市松2" data-name="市松2" x="0" y="0" width="8" height="8" patternTransform="translate(24431.09 24439.9) scale(4)" patternUnits="userSpaceOnUse" viewBox="0 0 8 8">
      <g>
        <rect class="cls-2" width="8" height="8"/>
        <g>
          <polygon class="cls-5" points="2 8 4 8 4 6 2 6 2 8"/>
          <polygon class="cls-1" points="4 8 6 8 6 6 4 6 4 8"/>
          <polygon class="cls-5" points="6 8 8 8 8 6 6 6 6 8"/>
          <polygon class="cls-1" points="0 8 2 8 2 6 0 6 0 8"/>
        </g>
        <g>
          <polygon class="cls-5" points="2 4 4 4 4 2 2 2 2 4"/>
          <polygon class="cls-1" points="4 4 6 4 6 2 4 2 4 4"/>
          <polygon class="cls-5" points="4 6 6 6 6 4 4 4 4 6"/>
          <polygon class="cls-5" points="6 4 8 4 8 2 6 2 6 4"/>
          <polygon class="cls-5" points="0 6 2 6 2 4 0 4 0 6"/>
          <polygon class="cls-1" points="2 6 4 6 4 4 2 4 2 6"/>
          <g>
            <polygon class="cls-1" points="6 6 8 6 8 4 6 4 6 6"/>
            <polygon class="cls-1" points="0 4 2 4 2 2 0 2 0 4"/>
          </g>
        </g>
        <g>
          <polygon class="cls-5" points="4 2 6 2 6 0 4 0 4 2"/>
          <polygon class="cls-5" points="0 2 2 2 2 0 0 0 0 2"/>
          <polygon class="cls-1" points="2 2 4 2 4 0 2 0 2 2"/>
          <polygon class="cls-1" points="6 2 8 2 8 0 6 0 6 2"/>
        </g>
      </g>
    </pattern>
  </defs>
  <path class="cls-3" d="M198.53,103.35c-9.21-52.21-59-87.08-111.21-77.87-21.87,3.86-40.65,14.86-54.47,30.15v128.78c21.42,23.62,54.09,36.1,87.81,30.15,52.21-9.21,87.08-59,77.87-111.21Z"/>
  <g>
    <g>
      <g>
        <path class="cls-1" d="M188.4,165.8H43.48v17.78h137.8c6.87,0,12.45-5.57,12.45-12.45h0c0-2.95-2.39-5.33-5.33-5.33Z"/>
        <g>
          <path class="cls-1" d="M41.12,179.8v-10.22h147.36c.86,0,1.56.7,1.56,1.56,0,4.78-3.89,8.67-8.67,8.67H41.12Z"/>
          <path d="M188.02,171.58c-.23,3.47-3.13,6.22-6.65,6.22H43.12v-6.22h144.9M188.47,167.58H39.12v14.22h142.25c5.89,0,10.67-4.78,10.67-10.67h0c0-1.96-1.59-3.56-3.56-3.56h0Z"/>
        </g>
      </g>
      <g>
        <g>
          <path class="cls-1" d="M173.19,166.69H44.5V56.45h128.69c5.52,0,10,4.48,10,10v90.24c0,5.52-4.48,10-10,10Z"/>
          <g>
            <path class="cls-1" d="M41.62,162.41V60.73h131.75c3.03,0,5.5,2.47,5.5,5.5v90.68c0,3.03-2.47,5.5-5.5,5.5H41.62Z"/>
            <path d="M173.36,63.23c1.65,0,3,1.35,3,3v90.68c0,1.65-1.35,3-3,3H44.12V63.23h129.25M173.36,58.23H39.12v106.68h134.25c4.42,0,8-3.58,8-8v-90.68c0-4.42-3.58-8-8-8h0Z"/>
          </g>
        </g>
        <line class="cls-4" x1="42.59" y1="133.62" x2="144.94" y2="133.62"/>
        <line class="cls-4" x1="144.78" y1="60.08" x2="144.78" y2="163.33"/>
      </g>
    </g>
    <g>
      <g>
        <rect class="cls-1" x="10.67" y="196.31" width="24.89" height="17.78" rx="6" ry="6"/>
        <g>
          <rect x="14.45" y="200.09" width="17.34" height="10.22" rx="2" ry="2"/>
          <path d="M29.78,202.09v6.22h-13.34v-6.22h13.34M29.78,198.09h-13.34c-2.21,0-4,1.79-4,4v6.22c0,2.21,1.79,4,4,4h13.34c2.21,0,4-1.79,4-4v-6.22c0-2.21-1.79-4-4-4h0Z"/>
        </g>
      </g>
      <g>
        <rect class="cls-1" x="10.67" y="25.93" width="24.89" height="17.78" rx="6" ry="6"/>
        <g>
          <rect x="14.45" y="29.71" width="17.34" height="10.22" rx="2" ry="2"/>
          <path d="M29.78,31.71v6.22h-13.34v-6.22h13.34M29.78,27.71h-13.34c-2.21,0-4,1.79-4,4v6.22c0,2.21,1.79,4,4,4h13.34c2.21,0,4-1.79,4-4v-6.22c0-2.21-1.79-4-4-4h0Z"/>
        </g>
      </g>
      <g>
        <rect class="cls-1" y="41.62" width="46.23" height="156.47" rx="10" ry="10"/>
        <g>
          <rect class="cls-1" x="4.28" y="45.9" width="37.67" height="147.91" rx="5.5" ry="5.5"/>
          <path d="M36.45,48.4c1.65,0,3,1.35,3,3v136.91c0,1.65-1.35,3-3,3H9.78c-1.65,0-3-1.35-3-3V51.4c0-1.65,1.35-3,3-3h26.67M36.45,43.4H9.78c-4.42,0-8,3.58-8,8v136.91c0,4.42,3.58,8,8,8h26.67c4.42,0,8-3.58,8-8V51.4c0-4.42-3.58-8-8-8h0Z"/>
        </g>
      </g>
    </g>
  </g>
</svg>